<?xml version="1.0" standalone="no"?><!DOCTYPE svg PUBLIC "-//W3C//DTD SVG 1.1//EN" "http://www.w3.org/Graphics/SVG/1.1/DTD/svg11.dtd"><svg t="1585555338197" class="icon" viewBox="0 0 1024 1024" version="1.1" xmlns="http://www.w3.org/2000/svg" p-id="15980" xmlns:xlink="http://www.w3.org/1999/xlink" width="200" height="200"><defs><style type="text/css"></style></defs><path d="M758.44755 742.223681l0.487156-0.003143 0.517538 0.003143 35.620015-0.006286v-0.981646c58.616925-3.207897 110.404236-14.278388 154.317429-33.022896 40.489481-17.284088 59.578666-35.018665 62.993997-38.397329l10.566572-10.454474v-14.864023c0-70.470009-27.174928-136.727427-76.514935-186.56821-49.404961-49.905736-115.339704-77.574107-185.665137-77.918783l-1.317941-0.014667-0.502871 0.003143a39.691173 39.691173 0 0 0-0.501823-0.003143l-1.320036 0.014667c-70.325434 0.344676-136.259129 28.013046-185.665137 77.918783-49.342102 49.840782-76.514935 116.098201-76.514935 186.56821v14.864023l10.565525 10.454474c3.416378 3.379711 22.502421 21.11324 62.993996 38.396281 43.915288 18.745557 95.702599 29.815 154.319524 33.022897v0.985836h35.620015v0.003143z m158.389635-97.625032c-53.62698 21.687351-115.215034 26.315858-157.439419 26.380811l-0.448393 0.001048-0.446298-0.001048c-76.500268-0.115241-127.841281-14.410391-157.441513-26.380811-15.403561-6.227217-26.641676-12.479577-34.132356-17.267326 3.904582-45.090748 23.144629-86.936932 55.162831-119.279906 36.041169-36.407846 84.165905-56.579251 135.504823-56.799257l0.85069-0.010477c0.331057 0.004191 0.661066 0.004191 1.002599 0l0.85069 0.010477c51.338918 0.220006 99.462606 20.391411 135.504822 56.799257 32.018203 32.342974 51.261392 74.189158 55.162832 119.279906-7.49068 4.787749-18.727747 11.038014-34.131308 17.267326z" p-id="15981"></path><path d="M759.473197 780.281572c-78.919286 0-154.523816-16.181963-212.88721-45.565333l-51.637498-25.997373v60.980418c0 28.645826 7.70859 56.266004 22.911003 82.093658 14.059429 23.88322 33.896635 45.126368 58.968935 63.142763 49.241528 35.383247 114.105575 54.870538 182.64477 54.870538 68.54129 0 133.405337-19.487291 182.646865-54.870538 25.0723-18.013251 44.909505-39.259542 58.968935-63.142763 15.201365-25.827654 22.911003-53.449928 22.911003-82.093658v-60.980418l-51.637498 25.997373c-58.36549 29.383369-133.970019 45.565333-212.889305 45.565333z m141.076212 76.800943c-37.228154 26.750631-87.328753 41.483698-141.076212 41.483698-53.745364 0-103.845963-14.732019-141.074117-41.483698-12.771871-9.179487-23.371968-19.344811-31.603334-30.18063 53.008868 16.058341 112.196761 24.619716 172.677451 24.619717s119.672774-8.561375 172.679547-24.619717c-8.232414 10.835818-18.829369 21.001142-31.603335 30.18063zM513.276035 176.768515H312.293243l23.677881-51.334728h232.830228v-71.24003h-278.422799l-56.537345 122.574758H0v178.100075h26.927684l32.654125 613.890005h394.111369l32.654125-613.890005h26.928732v-178.100075z m-127.133072 720.75005h-259.009891l-28.864784-542.649975h316.738411l-28.863736 542.649975zM71.24003 283.62856v-35.620015h370.794927v35.620015H71.24003z" p-id="15982"></path></svg>