<?xml version="1.0" standalone="no"?><!DOCTYPE svg PUBLIC "-//W3C//DTD SVG 1.1//EN" "http://www.w3.org/Graphics/SVG/1.1/DTD/svg11.dtd"><svg t="1585555104726" class="icon" viewBox="0 0 1024 1024" version="1.1" xmlns="http://www.w3.org/2000/svg" p-id="10742" xmlns:xlink="http://www.w3.org/1999/xlink" width="200" height="200"><defs><style type="text/css"></style></defs><path d="M784 1024H240s-64 0-64-83.008V82.976C176 0 240 0 240 0h544s64 0 64 82.976v858.016C848 1024 784 1024 784 1024zM624 304l-111.792 121.6L400 304h-64l138.384 160H368v48h112v48h-112v48h112v112h63.84v-112H656v-48h-112.16v-48H656v-48h-105.984L688 304h-64z m-103.776 688c-27.152 0-49.312-21.568-49.312-48s22.16-48 49.312-48c27.2 0 49.28 21.568 49.28 48s-22.08 48-49.28 48zM416 62.08c0-7.808 3.744-14.08 8.448-14.08h175.104c4.704 0 8.448 6.272 8.448 14.08v3.776c0 8.192-3.744 14.144-8.448 14.144H424.448C419.936 80 416 73.728 416 65.856v-3.792zM240 864h544V128H240v736z" p-id="10743"></path></svg>