<?xml version="1.0" standalone="no"?><!DOCTYPE svg PUBLIC "-//W3C//DTD SVG 1.1//EN" "http://www.w3.org/Graphics/SVG/1.1/DTD/svg11.dtd"><svg t="1585553933740" class="icon" viewBox="0 0 1024 1024" version="1.1" xmlns="http://www.w3.org/2000/svg" p-id="8631" xmlns:xlink="http://www.w3.org/1999/xlink" width="200" height="200"><defs><style type="text/css"></style></defs><path d="M222.2 595.8c22.9 0 41.5-18.6 41.5-41.5v-41.5c0-22.9-18.6-41.5-41.5-41.5s-41.5 18.6-41.5 41.5v41.5c0.1 22.9 18.6 41.5 41.5 41.5z" fill="" p-id="8632"></path><path d="M802.8 98.2H222.2c-22.9 0-41.5 18.6-41.5 41.5V347c0 22.9 18.6 41.5 41.5 41.5s41.5-18.6 41.5-41.5h497.6v331.7H222.2c-22.9 0-41.5 18.6-41.5 41.5s18.6 41.5 41.5 41.5h23.9l-59.8 103.7c-11.4 19.8-4.7 45.2 15.2 56.6 19.8 11.5 45.2 4.7 56.6-15.2l83.8-145.1H683l83.8 145.1c11.5 19.8 36.8 26.6 56.6 15.2 19.8-11.5 26.6-36.8 15.2-56.6l-59.8-103.7h24c22.9 0 41.5-18.6 41.5-41.5V139.6c-0.1-22.9-18.6-41.4-41.5-41.4z m-539.1 82.9H471V264H263.7v-82.9zM554 264v-82.9h207.3V264H554z" fill="" p-id="8633"></path><path d="M595.4 512.8h41.5c22.9 0 41.5 18.6 41.5 41.5s-18.6 41.5-41.5 41.5h-41.5c-22.9 0-41.5-18.6-41.5-41.5 0.1-22.9 18.6-41.5 41.5-41.5zM388.1 512.8h41.5c22.9 0 41.5 18.6 41.5 41.5s-18.6 41.5-41.5 41.5h-41.5c-22.9 0-41.5-18.6-41.5-41.5s18.6-41.5 41.5-41.5z" fill="" p-id="8634"></path></svg>