<?xml version="1.0" standalone="no"?><!DOCTYPE svg PUBLIC "-//W3C//DTD SVG 1.1//EN" "http://www.w3.org/Graphics/SVG/1.1/DTD/svg11.dtd"><svg t="1587454069903" class="icon" viewBox="0 0 1024 1024" version="1.1" xmlns="http://www.w3.org/2000/svg" p-id="38117" width="200" height="200" xmlns:xlink="http://www.w3.org/1999/xlink"><defs><style type="text/css"></style></defs><path d="M1011.2 134.4h-608c-3.2 0-3.2 0-6.4 3.2L3.2 502.4v3.2s0 3.2-3.2 3.2V518.4s0 3.2 3.2 3.2v3.2l393.6 364.8c3.2 3.2 3.2 3.2 6.4 3.2h608c6.4 0 12.8-3.2 12.8-12.8V147.2c0-9.6-3.2-12.8-12.8-12.8zM1001.6 512v352H409.6L28.8 512 409.6 160h592v352z" p-id="38118" fill="#2c2c2c"></path><path d="M499.2 665.6l144-140.8 140.8 140.8 16-16-140.8-140.8 140.8-144-16-16-140.8 144-144-144-16 16 144 144-144 140.8z" p-id="38119" fill="#2c2c2c"></path></svg>